<svg xmlns="http://www.w3.org/2000/svg" version="1.1" xmlns:xlink="http://www.w3.org/1999/xlink" xmlns:svgjs="http://svgjs.dev/svgjs" width="1600" height="900" preserveAspectRatio="none" viewBox="0 0 1600 900"><g mask="url(&quot;#SvgjsMask1220&quot;)" fill="none"><path d="M1258.604,738.121C1343.083,741.878,1413.944,678.889,1453.866,604.344C1491.498,534.076,1492.835,448.311,1449.715,381.271C1409.636,318.959,1332.622,303.988,1258.604,300.764C1176.182,297.174,1077.805,291.963,1036.3,363.262C994.678,434.764,1049.071,517.057,1091.272,588.219C1132.212,657.254,1178.421,734.555,1258.604,738.121" fill="rgba(41, 163, 131, 0.1)" class="triangle-float3"></path><path d="M-124.31 770.02 a197.29 197.29 0 1 0 394.58 0 a197.29 197.29 0 1 0 -394.58 0z" fill="rgba(41, 163, 131, 0.1)" class="triangle-float1"></path><path d="M1129.82 870.32 a190.42 190.42 0 1 0 380.84 0 a190.42 190.42 0 1 0 -380.84 0z" fill="rgba(41, 163, 131, 0.1)" class="triangle-float3"></path><path d="M1276.283,797.304C1359.817,791.366,1413.749,716.307,1451.431,641.519C1484.651,575.587,1491.248,501.334,1458.827,435.006C1421.578,358.799,1361.018,287.05,1276.283,283.192C1186.274,279.094,1107.695,339.023,1062.485,416.961C1017.1,495.2,1007.633,591.067,1051.954,669.914C1097.116,750.257,1184.349,803.839,1276.283,797.304" fill="rgba(41, 163, 131, 0.1)" class="triangle-float1"></path><path d="M207.53 854.54 a286.19 286.19 0 1 0 572.38 0 a286.19 286.19 0 1 0 -572.38 0z" fill="rgba(41, 163, 131, 0.1)" class="triangle-float2"></path><path d="M364.195,851.02C393.664,851.668,413.285,824.13,427.807,798.48C442.045,773.332,453.397,743.62,439.273,718.408C424.919,692.786,393.553,684.113,364.195,684.929C336.412,685.701,309.061,697.848,296.012,722.388C283.603,745.724,292.87,772.435,305.248,795.787C318.764,821.286,335.342,850.386,364.195,851.02" fill="rgba(41, 163, 131, 0.1)" class="triangle-float3"></path><path d="M-105.72 237.01 a202.81 202.81 0 1 0 405.62 0 a202.81 202.81 0 1 0 -405.62 0z" fill="rgba(41, 163, 131, 0.1)" class="triangle-float3"></path><path d="M1239.71 784.22 a214.33 214.33 0 1 0 428.66 0 a214.33 214.33 0 1 0 -428.66 0z" fill="rgba(41, 163, 131, 0.1)" class="triangle-float3"></path><path d="M517.566,760.992C574.627,763.395,631.042,737.943,660.219,688.847C689.986,638.758,689.702,574.239,657.347,525.782C627.856,481.614,570.674,475.463,517.566,475.195C463.797,474.923,403.279,478.43,375.317,524.358C346.62,571.494,365.879,630.351,394.31,677.647C421.697,723.206,464.456,758.755,517.566,760.992" fill="rgba(41, 163, 131, 0.1)" class="triangle-float2"></path><path d="M440.962,626.691C487.614,624.906,516.087,580.765,538.642,539.889C560.163,500.886,579.466,454.964,556.913,416.549C534.542,378.444,485.094,371.294,440.962,373.507C401.262,375.497,364.959,393.761,343.54,427.247C320.156,463.805,310.373,508.898,329.42,547.892C350.835,591.732,392.207,628.556,440.962,626.691" fill="rgba(41, 163, 131, 0.1)" class="triangle-float3"></path><path d="M404.21 633.7 a159.52 159.52 0 1 0 319.04 0 a159.52 159.52 0 1 0 -319.04 0z" fill="rgba(41, 163, 131, 0.1)" class="triangle-float3"></path><path d="M176.2,378.043C211.062,379.093,245.189,363.916,263.418,334.181C282.464,303.114,284.095,263.608,265.604,232.208C247.365,201.236,212.14,185.617,176.2,186.073C141.092,186.519,107.538,203.651,90.641,234.429C74.305,264.186,80.26,300.023,97.634,329.186C114.551,357.583,143.161,377.048,176.2,378.043" fill="rgba(41, 163, 131, 0.1)" class="triangle-float2"></path><path d="M803.19 470.42 a259.26 259.26 0 1 0 518.52 0 a259.26 259.26 0 1 0 -518.52 0z" fill="rgba(41, 163, 131, 0.1)" class="triangle-float1"></path><path d="M1371.7 457.01 a200.5 200.5 0 1 0 401 0 a200.5 200.5 0 1 0 -401 0z" fill="rgba(41, 163, 131, 0.1)" class="triangle-float3"></path><path d="M1342.19,223.801C1380.58,223.03,1403.003,184.89,1421.451,151.214C1438.908,119.347,1453.312,83.181,1437.01,50.708C1419.245,15.322,1381.742,-8.508,1342.19,-6.667C1305.096,-4.94,1278.839,26.029,1261.521,58.878C1245.571,89.132,1242.189,123.789,1257.216,154.512C1274.428,189.7,1303.026,224.588,1342.19,223.801" fill="rgba(41, 163, 131, 0.1)" class="triangle-float1"></path></g><defs><mask id="SvgjsMask1220"><rect width="1600" height="900" fill="#ffffff"></rect></mask><style>
                @keyframes float1 {
                    0%{transform: translate(0, 0)}
                    50%{transform: translate(-10px, 0)}
                    100%{transform: translate(0, 0)}
                }

                .triangle-float1 {
                    animation: float1 5s infinite;
                }

                @keyframes float2 {
                    0%{transform: translate(0, 0)}
                    50%{transform: translate(-5px, -5px)}
                    100%{transform: translate(0, 0)}
                }

                .triangle-float2 {
                    animation: float2 4s infinite;
                }

                @keyframes float3 {
                    0%{transform: translate(0, 0)}
                    50%{transform: translate(0, -10px)}
                    100%{transform: translate(0, 0)}
                }

                .triangle-float3 {
                    animation: float3 6s infinite;
                }
            </style></defs></svg>